# xmcd CD database file
#
# Track frame offsets:
#	150
#	21032
#	42357
#	62576
#	81042
#	103389
#	126116
#	143307
#	165492
#	186676
#	206007
#	224596
#
# Disc length: 3276 seconds
#
# Revision: 2
# Processed by: cddbd v1.5.2PL0 Copyright (c) Steve Scherf et al.
# Submitted via: CDex 1.70beta2
#
DISCID=ad0cca0c
DTITLE=しおり - 青空
DYEAR=1900
DGENRE=Blues
TTITLE0=僕の信じる道
TTITLE1=Smile
TTITLE2=Love Song
TTITLE3=カナリアの唄
TTITLE4=スポットライト
TTITLE5=Say Hello
TTITLE6=ヒント
TTITLE7=一生懸命 恋をして
TTITLE8=Heart Flower
TTITLE9=君の傘
TTITLE10=愛の花
TTITLE11=約束
EXTD=
EXTT0=
EXTT1=
EXTT2=
EXTT3=
EXTT4=
EXTT5=
EXTT6=
EXTT7=
EXTT8=
EXTT9=
EXTT10=
EXTT11=
PLAYORDER=
